<svg xmlns="http://www.w3.org/2000/svg" xmlns:xlink="http://www.w3.org/1999/xlink" width="36" height="36" viewBox="0 0 36 36">
  <defs>
    <clipPath id="clip-path">
      <rect id="Rectangle_19" data-name="Rectangle 19" width="36" height="36" transform="translate(34.667 233.667)" fill="#fff"/>
    </clipPath>
  </defs>
  <g id="home" transform="translate(-34.667 -233.667)" clip-path="url(#clip-path)">
    <g id="icon-home" transform="translate(35 235.105)">
      <path id="Path_4" data-name="Path 4" d="M30.857,41.227H7.393a3.178,3.178,0,0,1-3.174-3.174V21.35a1.1,1.1,0,1,1,2.208,0v16.7a.967.967,0,0,0,.966.966H30.857a.967.967,0,0,0,.966-.966V21.35a1.1,1.1,0,1,1,2.208,0v16.7A3.178,3.178,0,0,1,30.857,41.227Z" transform="translate(-1.458 -8.104)" fill="#fff"/>
      <path id="Path_5" data-name="Path 5" d="M34.229,18.8a1.1,1.1,0,0,1-.781-.323L19.716,4.744a2.9,2.9,0,0,0-4.1,0L1.885,18.476A1.1,1.1,0,0,1,.323,16.915L14.056,3.183a5.112,5.112,0,0,1,7.222,0L35.01,16.915a1.1,1.1,0,0,1-.781,1.885Z" transform="translate(0 -1.689)" fill="#fff"/>
      <path id="Path_6" data-name="Path 6" d="M28.5,44.727H19.667a1.1,1.1,0,0,1-1.1-1.1v-9.8a3.454,3.454,0,0,1,3.451-3.451h4.141A3.454,3.454,0,0,1,29.6,33.824v9.8A1.1,1.1,0,0,1,28.5,44.727Zm-7.729-2.208H27.4v-8.7a1.244,1.244,0,0,0-1.242-1.242H22.013a1.244,1.244,0,0,0-1.242,1.242Z" transform="translate(-6.417 -11.605)" fill="#fff"/>
    </g>
  </g>
</svg>
