<svg xmlns="http://www.w3.org/2000/svg" width="14.625" height="14.624" viewBox="0 0 14.625 14.624">
  <path id="Icon_awesome-linkedin-in" data-name="Icon awesome-linkedin-in" d="M3.274,14.625H.242V4.861H3.274ZM1.756,3.529A1.764,1.764,0,1,1,3.512,1.756,1.771,1.771,0,0,1,1.756,3.529Zm12.866,11.1H11.6V9.872c0-1.133-.023-2.585-1.576-2.585C8.443,7.286,8.2,8.517,8.2,9.79v4.835H5.173V4.861H8.081V6.193h.042a3.186,3.186,0,0,1,2.869-1.577c3.069,0,3.633,2.021,3.633,4.645v5.364Z" transform="translate(0 0)" fill="#063a58"/>
</svg>
