<svg xmlns="http://www.w3.org/2000/svg" width="18.489" height="13" viewBox="0 0 18.489 13">
  <path id="Icon_awesome-youtube" data-name="Icon awesome-youtube" d="M18.686,4.534a2.323,2.323,0,0,0-1.635-1.645A54.9,54.9,0,0,0,9.828,2.5,54.9,54.9,0,0,0,2.6,2.889,2.323,2.323,0,0,0,.97,4.534,24.37,24.37,0,0,0,.583,9.013,24.37,24.37,0,0,0,.97,13.492,2.289,2.289,0,0,0,2.6,15.111a54.9,54.9,0,0,0,7.223.389,54.9,54.9,0,0,0,7.223-.389,2.289,2.289,0,0,0,1.635-1.619,24.37,24.37,0,0,0,.386-4.479,24.37,24.37,0,0,0-.386-4.479ZM7.937,11.762v-5.5l4.832,2.749L7.937,11.762Z" transform="translate(-0.583 -2.5)" fill="#063a58"/>
</svg>
