<svg id="icon_filter" data-name="icon filter" xmlns="http://www.w3.org/2000/svg" width="14.949" height="16.362" viewBox="0 0 14.949 16.362">
  <path id="Path_43" data-name="Path 43" d="M12.275,0h-9.6A2.812,2.812,0,0,0,0,2.927V13.435a2.812,2.812,0,0,0,2.674,2.927h9.6a2.812,2.812,0,0,0,2.674-2.927V2.927A2.812,2.812,0,0,0,12.275,0Zm1.8,13.435a1.891,1.891,0,0,1-1.8,1.968h-9.6a1.891,1.891,0,0,1-1.8-1.968V2.927A1.891,1.891,0,0,1,2.674.959h9.6a1.891,1.891,0,0,1,1.8,1.968Z" transform="translate(0 0)" fill="#fff"/>
  <path id="Path_44" data-name="Path 44" d="M75.025,81.361h-6.67a1.342,1.342,0,0,0-2.609,0H64.7a.481.481,0,0,0,0,.959h1.041a1.342,1.342,0,0,0,2.609,0h6.67a.481.481,0,0,0,0-.959ZM67.05,82.388a.55.55,0,1,1,.5-.548A.526.526,0,0,1,67.05,82.388Z" transform="translate(-62.391 -77.767)" fill="#fff"/>
  <path id="Path_45" data-name="Path 45" d="M75.025,209.894H73.984a1.342,1.342,0,0,0-2.609,0H64.7a.481.481,0,0,0,0,.959h6.67a1.342,1.342,0,0,0,2.609,0h1.041a.481.481,0,0,0,0-.959Zm-2.346,1.027a.55.55,0,1,1,.5-.548A.526.526,0,0,1,72.68,210.921Z" transform="translate(-62.391 -202.192)" fill="#fff"/>
  <path id="Path_46" data-name="Path 46" d="M75.025,338.427H70.231a1.342,1.342,0,0,0-2.609,0H64.7a.481.481,0,0,0,0,.959h2.918a1.342,1.342,0,0,0,2.609,0h4.794a.481.481,0,0,0,0-.959Zm-6.1,1.027a.55.55,0,1,1,.5-.548A.526.526,0,0,1,68.927,339.454Z" transform="translate(-62.391 -326.618)" fill="#fff"/>
</svg>
