<svg xmlns="http://www.w3.org/2000/svg" width="15.75" height="15.75" viewBox="0 0 15.75 15.75">
  <path id="Icon_awesome-whatsapp" data-name="Icon awesome-whatsapp" d="M13.391,4.539A7.807,7.807,0,0,0,1.107,13.957L0,18l4.138-1.086a7.781,7.781,0,0,0,3.73.949h0a7.88,7.88,0,0,0,7.879-7.8,7.835,7.835,0,0,0-2.359-5.52ZM7.871,16.548a6.475,6.475,0,0,1-3.3-.9L4.331,15.5l-2.454.643.654-2.394-.155-.246a6.5,6.5,0,1,1,12.055-3.449,6.559,6.559,0,0,1-6.56,6.49Zm3.558-4.859c-.193-.1-1.153-.57-1.332-.633s-.309-.1-.439.1-.5.633-.619.766-.229.148-.422.049A5.308,5.308,0,0,1,5.963,9.65c-.2-.345.2-.32.573-1.065a.361.361,0,0,0-.018-.341c-.049-.1-.439-1.058-.6-1.448s-.32-.327-.439-.334-.243-.007-.373-.007a.722.722,0,0,0-.52.243A2.191,2.191,0,0,0,3.9,8.325,3.82,3.82,0,0,0,4.7,10.343,8.714,8.714,0,0,0,8.03,13.289a3.816,3.816,0,0,0,2.341.489,2,2,0,0,0,1.315-.928,1.631,1.631,0,0,0,.113-.928C11.753,11.834,11.623,11.784,11.429,11.689Z" transform="translate(0 -2.25)" fill="#fff"/>
</svg>
