<svg xmlns="http://www.w3.org/2000/svg" width="16.093" height="15.372" viewBox="0 0 16.093 15.372">
  <path id="Icon_awesome-star-half-alt" data-name="Icon awesome-star-half-alt" d="M15.269,5.149l-4.395-.64L8.91.535a.964.964,0,0,0-1.727,0L5.219,4.509.824,5.148A.961.961,0,0,0,.292,6.788L3.471,9.88l-.752,4.368a.963.963,0,0,0,.949,1.124.949.949,0,0,0,.446-.113L8.046,13.2l3.931,2.063a.961.961,0,0,0,1.4-1.012l-.751-4.368L15.8,6.789A.961.961,0,0,0,15.269,5.149Zm-3.655,3.7-.544.529.129.747.586,3.406L8.718,11.922l-.672-.352V2.046l1.532,3.1.336.679.751.109,3.43.5Z" transform="translate(0)" fill="#fc6312"/>
</svg>
