<svg xmlns="http://www.w3.org/2000/svg" width="11.625" height="11.625" viewBox="0 0 11.625 11.625">
  <path id="Icon_awesome-globe-africa" data-name="Icon awesome-globe-africa" d="M5.813.188A5.813,5.813,0,1,0,11.625,6,5.812,5.812,0,0,0,5.813.188Zm3.75,5.051V5.4a.363.363,0,0,1-.2.325L9,5.906a.363.363,0,0,1-.364-.023L8.21,5.6a.364.364,0,0,0-.316-.042l-.062.021a.363.363,0,0,0-.187.546l.31.465a.363.363,0,0,0,.3.162h.192a.363.363,0,0,1,.363.363v.266A.364.364,0,0,1,8.74,7.6L8.3,8.183a.365.365,0,0,0-.066.151l-.1.535a.364.364,0,0,1-.112.2,3.741,3.741,0,0,0-.586.683l-.305.458a.65.65,0,0,1-1.123-.07,1.849,1.849,0,0,1-.2-.827v-.7a.363.363,0,0,0-.363-.363H4.843a1.28,1.28,0,0,1-1.28-1.28V6.64a1.281,1.281,0,0,1,.512-1.024l.646-.485a1.281,1.281,0,0,1,.768-.256H5.51a1.278,1.278,0,0,1,.573.135l.345.173A.363.363,0,0,0,6.7,5.2l1.109-.37A.363.363,0,0,0,7.7,4.125H7.462a.363.363,0,0,1-.257-.106l-.162-.162a.363.363,0,0,0-.257-.106H4.676a.363.363,0,0,1-.363-.363v-.1a.363.363,0,0,1,.275-.352l.339-.085A.364.364,0,0,0,5.141,2.7l.189-.284a.363.363,0,0,1,.3-.162H6.2a.363.363,0,0,0,.363-.363V1.378a4.694,4.694,0,0,1,3.8,3.5H9.926A.363.363,0,0,0,9.563,5.238Z" transform="translate(0 -0.188)" fill="#5dbdf3"/>
</svg>
