<svg xmlns="http://www.w3.org/2000/svg" xmlns:xlink="http://www.w3.org/1999/xlink" width="31" height="22" viewBox="0 0 31 22">
  <defs>
    <clipPath id="clip-path">
      <rect id="Rectangle_81" data-name="Rectangle 81" width="31" height="22" transform="translate(0)" fill="#0b6599"/>
    </clipPath>
  </defs>
  <g id="Mask_Group_10" data-name="Mask Group 10" transform="translate(0)" clip-path="url(#clip-path)">
    <g id="icon-email" transform="translate(0.459 0)">
      <g id="Group_154" data-name="Group 154">
        <path id="Path_48" data-name="Path 48" d="M23.222,15.587V9.444A2.447,2.447,0,0,0,20.778,7H2.444A2.447,2.447,0,0,0,0,9.444V21.667a2.447,2.447,0,0,0,2.444,2.444H16.149A6.718,6.718,0,0,0,25.973,28.1a.611.611,0,1,0-.612-1.057,5.5,5.5,0,1,1,2.751-4.765v.611a1.222,1.222,0,1,1-2.444,0V20.444a.609.609,0,0,0-1.033-.439,3.055,3.055,0,1,0,.258,4.285,2.441,2.441,0,0,0,4.441-1.4v-.611A6.729,6.729,0,0,0,23.222,15.587ZM2.444,8.222H20.778c.025,0,.047.013.072.015l-8.736,7.171a1.032,1.032,0,0,1-.964.031l-8.776-7.2C2.4,8.235,2.419,8.222,2.444,8.222ZM22,15.587a6.729,6.729,0,0,0-6.111,6.691c0,.206.013.41.031.611H2.444a1.224,1.224,0,0,1-1.222-1.222V9.444a1.209,1.209,0,0,1,.1-.486l9.1,7.465a2.15,2.15,0,0,0,2.324.026.594.594,0,0,0,.1-.066L21.9,8.959a1.21,1.21,0,0,1,.1.486v6.142Zm.611,8.525a1.833,1.833,0,1,1,1.833-1.833A1.835,1.835,0,0,1,22.611,24.111Z" transform="translate(0 -7)" fill="#0b6599"/>
      </g>
    </g>
  </g>
</svg>
