<svg xmlns="http://www.w3.org/2000/svg" width="14.914" height="10.44" viewBox="0 0 14.914 10.44">
  <path id="Icon_awesome-shuttle-van" data-name="Icon awesome-shuttle-van" d="M14.655,6.413,11.521,2.652a1.119,1.119,0,0,0-.859-.4H.746A.746.746,0,0,0,0,3V9.707a.746.746,0,0,0,.746.746h.746a2.237,2.237,0,0,0,4.474,0H8.949a2.237,2.237,0,0,0,4.474,0h.746a.746.746,0,0,0,.746-.746V7.129A1.12,1.12,0,0,0,14.655,6.413ZM1.491,5.979V3.741H3.729V5.979Zm2.237,5.593a1.119,1.119,0,1,1,1.119-1.119A1.119,1.119,0,0,1,3.729,11.571ZM7.457,5.979H5.22V3.741H7.457Zm3.729,5.593A1.119,1.119,0,1,1,12.3,10.453,1.119,1.119,0,0,1,11.186,11.571ZM8.949,5.979V3.741h1.538l1.864,2.237Z" transform="translate(0 -2.25)" fill="#02a239"/>
</svg>
