<svg xmlns="http://www.w3.org/2000/svg" width="148" height="148" viewBox="0 0 148 148">
  <path id="Icon_awesome-check-circle" data-name="Icon awesome-check-circle" d="M148.313,74.313a74,74,0,1,1-74-74A74,74,0,0,1,148.313,74.313Zm-82.56,39.182,54.9-54.9a4.774,4.774,0,0,0,0-6.752L113.9,45.088a4.774,4.774,0,0,0-6.752,0L62.377,89.864l-20.9-20.9a4.775,4.775,0,0,0-6.752,0l-6.752,6.752a4.774,4.774,0,0,0,0,6.752L59,113.495A4.774,4.774,0,0,0,65.753,113.495Z" transform="translate(-0.313 -0.313)" fill="#02a239"/>
</svg>
