<svg xmlns="http://www.w3.org/2000/svg" width="18.467" height="14.998" viewBox="0 0 18.467 14.998">
  <path id="Icon_awesome-twitter" data-name="Icon awesome-twitter" d="M16.569,5.616c.012.164.012.328.012.492A10.7,10.7,0,0,1,5.812,16.877,10.7,10.7,0,0,1,0,15.178a7.83,7.83,0,0,0,.914.047,7.58,7.58,0,0,0,4.7-1.617,3.791,3.791,0,0,1-3.539-2.625,4.773,4.773,0,0,0,.715.059,4,4,0,0,0,1-.129A3.785,3.785,0,0,1,.75,7.2V7.151a3.812,3.812,0,0,0,1.711.48A3.79,3.79,0,0,1,1.289,2.57a10.758,10.758,0,0,0,7.8,3.961A4.273,4.273,0,0,1,9,5.663a3.788,3.788,0,0,1,6.55-2.59,7.451,7.451,0,0,0,2.4-.914,3.775,3.775,0,0,1-1.664,2.086,7.587,7.587,0,0,0,2.179-.586,8.136,8.136,0,0,1-1.9,1.957Z" transform="translate(0 -1.878)" fill="#063a58"/>
</svg>
