<svg xmlns="http://www.w3.org/2000/svg" width="16.333" height="16.329" viewBox="0 0 16.333 16.329">
  <path id="Icon_awesome-instagram" data-name="Icon awesome-instagram" d="M8.165,5.221a4.187,4.187,0,1,0,4.187,4.187A4.18,4.18,0,0,0,8.165,5.221Zm0,6.908a2.722,2.722,0,1,1,2.722-2.722A2.727,2.727,0,0,1,8.165,12.129ZM13.5,5.05a.976.976,0,1,1-.976-.976A.974.974,0,0,1,13.5,5.05Zm2.773.991A4.832,4.832,0,0,0,14.953,2.62,4.864,4.864,0,0,0,11.532,1.3c-1.348-.077-5.389-.077-6.737,0A4.857,4.857,0,0,0,1.373,2.616,4.848,4.848,0,0,0,.054,6.037c-.077,1.348-.077,5.389,0,6.737A4.832,4.832,0,0,0,1.373,16.2a4.87,4.87,0,0,0,3.421,1.319c1.348.077,5.389.077,6.737,0A4.832,4.832,0,0,0,14.953,16.2a4.864,4.864,0,0,0,1.319-3.421C16.349,11.426,16.349,7.389,16.272,6.041Zm-1.742,8.18a2.756,2.756,0,0,1-1.552,1.552c-1.075.426-3.625.328-4.813.328s-3.742.095-4.813-.328A2.756,2.756,0,0,1,1.8,14.221c-.426-1.075-.328-3.625-.328-4.813S1.377,5.666,1.8,4.594A2.756,2.756,0,0,1,3.352,3.042c1.075-.426,3.625-.328,4.813-.328s3.742-.095,4.813.328a2.756,2.756,0,0,1,1.552,1.552c.426,1.075.328,3.625.328,4.813S14.957,13.15,14.531,14.221Z" transform="translate(0.003 -1.243)" fill="#063a58"/>
</svg>
