<svg xmlns="http://www.w3.org/2000/svg" xmlns:xlink="http://www.w3.org/1999/xlink" width="24" height="24" viewBox="0 0 24 24">
  <defs>
    <clipPath id="clip-path">
      <rect id="Rectangle_25" data-name="Rectangle 25" width="24" height="24" transform="translate(859 18)" fill="#5dbdf3"/>
    </clipPath>
  </defs>
  <g id="Mask_Group_4" data-name="Mask Group 4" transform="translate(-859 -18)" clip-path="url(#clip-path)">
    <g id="icon-customer-support" transform="translate(859 18)">
      <g id="Group_34" data-name="Group 34">
        <g id="Group_33" data-name="Group 33">
          <path id="Path_11" data-name="Path 11" d="M17.156,18.563a.469.469,0,1,0,.469.469A.469.469,0,0,0,17.156,18.563Z" fill="#5dbdf3"/>
        </g>
      </g>
      <g id="Group_36" data-name="Group 36">
        <g id="Group_35" data-name="Group 35">
          <path id="Path_12" data-name="Path 12" d="M18.31,17.047,16.082,16.3l-.8-1.6a5.134,5.134,0,0,0,1.39-2.716l.1-.6h.853a1.408,1.408,0,0,0,1.406-1.406V7.031a7.031,7.031,0,0,0-14.062,0V9.984a1.409,1.409,0,0,0,.938,1.326v.549a1.408,1.408,0,0,0,1.406,1.406h.412a5.085,5.085,0,0,0,.786,1.218c.066.076.136.15.207.222l-.8,1.6-2.228.743a6.909,6.909,0,0,0-4.471,6.485A.469.469,0,0,0,1.688,24H22.313a.469.469,0,0,0,.469-.469A6.909,6.909,0,0,0,18.31,17.047Zm-.217-7.062a.469.469,0,0,1-.469.469H16.91c.119-.923.2-1.905.23-2.872,0-.027,0-.054,0-.081h.951Zm-11.719.469a.469.469,0,0,1-.469-.469V7.5h.951q0,.073.005.147v.005h0c.033.941.111,1.9.228,2.8H6.375Zm.938,1.875a.469.469,0,0,1-.469-.469v-.469h.384l.1.6c.019.114.042.227.069.339ZM6.845,6.563h-.92a6.094,6.094,0,0,1,12.152,0h-.92A4.748,4.748,0,0,0,12.42,1.875h-.839A4.748,4.748,0,0,0,6.845,6.563Zm4.736-3.75h.839a3.812,3.812,0,0,1,3.8,3.816c0,.148,0,.276,0,.393,0,0,0,0,0,0l-.586-.084a7.532,7.532,0,0,1-4.235-2.117.469.469,0,0,0-.331-.137A4.241,4.241,0,0,0,7.8,6.23,3.81,3.81,0,0,1,11.58,2.813ZM8.369,12.328a26.793,26.793,0,0,1-.562-4.549l.631-.841a3.3,3.3,0,0,1,2.44-1.307A8.479,8.479,0,0,0,15.5,7.87l.69.1c-.046.979-.14,1.961-.275,2.865h0c-.043.29-.077.477-.163,1a3.982,3.982,0,0,1-2.826,3.2,3.688,3.688,0,0,1-4.14-1.771h.956a1.408,1.408,0,0,0,1.326.938H12a1.406,1.406,0,0,0,0-2.812h-.937a1.407,1.407,0,0,0-1.326.938Zm2.654,3.657a4.7,4.7,0,0,0,1.743.039l-.828.876Zm.271,1.6L9.807,19.154a17.86,17.86,0,0,1-1.049-2.434L9.316,15.6ZM14.6,15.445l.638,1.275a17.855,17.855,0,0,1-1.05,2.434L12.6,17.563ZM10.594,12.8a.469.469,0,0,1,.469-.469H12a.469.469,0,0,1,0,.938h-.937A.469.469,0,0,1,10.594,12.8ZM2.175,23.063a5.924,5.924,0,0,1,3.811-5.126l1.973-.658a18.791,18.791,0,0,0,1.334,2.894l0,0h0a18.8,18.8,0,0,0,1.283,1.959l.577.926ZM12,22.645l-.636-1.021q-.011-.017-.023-.033a17.873,17.873,0,0,1-1.056-1.578l1.672-1.768,1.761,1.761a17.853,17.853,0,0,1-1.06,1.584C12.636,21.621,12.668,21.573,12,22.645Zm.844.418.577-.926a18.789,18.789,0,0,0,1.292-1.975l.007-.012v0a18.775,18.775,0,0,0,1.32-2.869l1.973.658a5.924,5.924,0,0,1,3.811,5.126H12.844Z" fill="#5dbdf3"/>
        </g>
      </g>
      <g id="Group_38" data-name="Group 38">
        <g id="Group_37" data-name="Group 37">
          <path id="Path_13" data-name="Path 13" d="M20.416,21.166a4.687,4.687,0,0,0-1.327-1.611.469.469,0,0,0-.572.743,3.743,3.743,0,0,1,1.06,1.287.469.469,0,0,0,.839-.419Z" fill="#5dbdf3"/>
        </g>
      </g>
    </g>
  </g>
</svg>
