<svg xmlns="http://www.w3.org/2000/svg" xmlns:xlink="http://www.w3.org/1999/xlink" width="24" height="24" viewBox="0 0 24 24">
  <defs>
    <clipPath id="clip-path">
      <rect id="Rectangle_24" data-name="Rectangle 24" width="24" height="24" transform="translate(376 18)" fill="#5dbdf3"/>
    </clipPath>
  </defs>
  <g id="Mask_Group_2" data-name="Mask Group 2" transform="translate(-376 -18)" clip-path="url(#clip-path)">
    <g id="icon-time" transform="translate(376 18)">
      <g id="Group_26" data-name="Group 26">
        <g id="Group_25" data-name="Group 25">
          <path id="Path_7" data-name="Path 7" d="M12,0A12,12,0,1,0,24,12,12,12,0,0,0,12,0Zm0,22.286A10.286,10.286,0,1,1,22.286,12,10.286,10.286,0,0,1,12,22.286Z" fill="#5dbdf3"/>
        </g>
      </g>
      <g id="Group_28" data-name="Group 28">
        <g id="Group_27" data-name="Group 27">
          <path id="Path_8" data-name="Path 8" d="M12,4.286a.857.857,0,0,0-.857.857v6h-6a.857.857,0,1,0,0,1.714H12A.857.857,0,0,0,12.857,12V5.143A.857.857,0,0,0,12,4.286Z" fill="#5dbdf3"/>
        </g>
      </g>
    </g>
  </g>
</svg>
