<svg xmlns="http://www.w3.org/2000/svg" xmlns:xlink="http://www.w3.org/1999/xlink" width="24" height="24" viewBox="0 0 24 24">
  <defs>
    <clipPath id="clip-path">
      <rect id="Rectangle_23" data-name="Rectangle 23" width="24" height="24" transform="translate(59 18)" fill="#5dbdf3"/>
    </clipPath>
  </defs>
  <g id="Mask_Group_3" data-name="Mask Group 3" transform="translate(-59 -18)" clip-path="url(#clip-path)">
    <g id="icon-location" transform="translate(59 18)">
      <g id="Group_30" data-name="Group 30">
        <g id="Group_29" data-name="Group 29">
          <path id="Path_9" data-name="Path 9" d="M19.178,2.973A10.151,10.151,0,0,0,1.849,10.151c0,5.485,5.186,10.047,7.972,12.5.387.341.722.635.988.884a1.749,1.749,0,0,0,2.381,0c.266-.249.6-.543.988-.884,2.786-2.451,7.972-7.013,7.972-12.5A10.085,10.085,0,0,0,19.178,2.973ZM13.25,21.593c-.4.348-.737.649-1.019.912a.339.339,0,0,1-.462,0c-.282-.263-.623-.564-1.019-.912-2.619-2.3-7.5-6.593-7.5-11.442a8.745,8.745,0,0,1,17.49,0C20.745,15,15.869,19.289,13.25,21.593Z" fill="#5dbdf3"/>
        </g>
      </g>
      <g id="Group_32" data-name="Group 32">
        <g id="Group_31" data-name="Group 31">
          <path id="Path_10" data-name="Path 10" d="M12,5.294a4.473,4.473,0,1,0,4.473,4.473A4.478,4.478,0,0,0,12,5.294Zm0,7.541a3.067,3.067,0,1,1,3.067-3.067A3.071,3.071,0,0,1,12,12.835Z" fill="#5dbdf3"/>
        </g>
      </g>
    </g>
  </g>
</svg>
